<svg width="1377" height="367" viewBox="0 0 1377 367" fill="none" xmlns="http://www.w3.org/2000/svg">
<path d="M8.74369 46.6604C6.53919 47.2327 5 49.2224 5 51.5C5 53.7776 6.53919 55.7673 8.74369 56.3396L167.209 97.4758C168.707 97.8647 170.301 97.538 171.525 96.5911C172.749 95.6442 173.466 94.1838 173.466 92.6362L173.466 10.3638C173.466 8.81621 172.749 7.35585 171.525 6.40895C170.301 5.46205 168.707 5.13535 167.209 5.5242L8.74369 46.6604Z" fill="#454545"/>
<path d="M8.74369 46.6604C6.53919 47.2327 5 49.2224 5 51.5C5 53.7776 6.53919 55.7673 8.74369 56.3396L167.209 97.4758C168.707 97.8647 170.301 97.538 171.525 96.5911C172.749 95.6442 173.466 94.1838 173.466 92.6362L173.466 10.3638C173.466 8.81621 172.749 7.35585 171.525 6.40895C170.301 5.46205 168.707 5.13535 167.209 5.5242L8.74369 46.6604Z" fill="#454545"/>
<path d="M8.74369 46.6604C6.53919 47.2327 5 49.2224 5 51.5C5 53.7776 6.53919 55.7673 8.74369 56.3396L167.209 97.4758C168.707 97.8647 170.301 97.538 171.525 96.5911C172.749 95.6442 173.466 94.1838 173.466 92.6362L173.466 10.3638C173.466 8.81621 172.749 7.35585 171.525 6.40895C170.301 5.46205 168.707 5.13535 167.209 5.5242L8.74369 46.6604Z" fill="#454545"/>
<path d="M8.74369 46.6604C6.53919 47.2327 5 49.2224 5 51.5C5 53.7776 6.53919 55.7673 8.74369 56.3396L167.209 97.4758C168.707 97.8647 170.301 97.538 171.525 96.5911C172.749 95.6442 173.466 94.1838 173.466 92.6362L173.466 10.3638C173.466 8.81621 172.749 7.35585 171.525 6.40895C170.301 5.46205 168.707 5.13535 167.209 5.5242L8.74369 46.6604Z" fill="#454545"/>
<path d="M8.74369 46.6604C6.53919 47.2327 5 49.2224 5 51.5C5 53.7776 6.53919 55.7673 8.74369 56.3396L167.209 97.4758C168.707 97.8647 170.301 97.538 171.525 96.5911C172.749 95.6442 173.466 94.1838 173.466 92.6362L173.466 10.3638C173.466 8.81621 172.749 7.35585 171.525 6.40895C170.301 5.46205 168.707 5.13535 167.209 5.5242L8.74369 46.6604Z" fill="#454545"/>
<path d="M8.74369 46.6604C6.53919 47.2327 5 49.2224 5 51.5C5 53.7776 6.53919 55.7673 8.74369 56.3396L167.209 97.4758C168.707 97.8647 170.301 97.538 171.525 96.5911C172.749 95.6442 173.466 94.1838 173.466 92.6362L173.466 10.3638C173.466 8.81621 172.749 7.35585 171.525 6.40895C170.301 5.46205 168.707 5.13535 167.209 5.5242L8.74369 46.6604Z" fill="#454545"/>
<path d="M8.74369 46.6604C6.53919 47.2327 5 49.2224 5 51.5C5 53.7776 6.53919 55.7673 8.74369 56.3396L167.209 97.4758C168.707 97.8647 170.301 97.538 171.525 96.5911C172.749 95.6442 173.466 94.1838 173.466 92.6362L173.466 10.3638C173.466 8.81621 172.749 7.35585 171.525 6.40895C170.301 5.46205 168.707 5.13535 167.209 5.5242L8.74369 46.6604Z" stroke="white" stroke-width="10" stroke-linejoin="round"/>
<path d="M331.251 46.6591C333.458 47.2297 335 49.2206 335 51.5C335 53.7794 333.458 55.7703 331.251 56.3409L172.128 97.4771C170.631 97.8642 169.038 97.5365 167.815 96.5895C166.593 95.6425 165.877 94.1829 165.877 92.6362L165.877 10.3638C165.877 8.81709 166.593 7.35746 167.815 6.41048C169.038 5.46351 170.631 5.13581 172.128 5.52293L331.251 46.6591Z" fill="#454545"/>
<path d="M331.251 46.6591C333.458 47.2297 335 49.2206 335 51.5C335 53.7794 333.458 55.7703 331.251 56.3409L172.128 97.4771C170.631 97.8642 169.038 97.5365 167.815 96.5895C166.593 95.6425 165.877 94.1829 165.877 92.6362L165.877 10.3638C165.877 8.81709 166.593 7.35746 167.815 6.41048C169.038 5.46351 170.631 5.13581 172.128 5.52293L331.251 46.6591Z" fill="#454545"/>
<path d="M331.251 46.6591C333.458 47.2297 335 49.2206 335 51.5C335 53.7794 333.458 55.7703 331.251 56.3409L172.128 97.4771C170.631 97.8642 169.038 97.5365 167.815 96.5895C166.593 95.6425 165.877 94.1829 165.877 92.6362L165.877 10.3638C165.877 8.81709 166.593 7.35746 167.815 6.41048C169.038 5.46351 170.631 5.13581 172.128 5.52293L331.251 46.6591Z" fill="#454545"/>
<path d="M331.251 46.6591C333.458 47.2297 335 49.2206 335 51.5C335 53.7794 333.458 55.7703 331.251 56.3409L172.128 97.4771C170.631 97.8642 169.038 97.5365 167.815 96.5895C166.593 95.6425 165.877 94.1829 165.877 92.6362L165.877 10.3638C165.877 8.81709 166.593 7.35746 167.815 6.41048C169.038 5.46351 170.631 5.13581 172.128 5.52293L331.251 46.6591Z" fill="#454545"/>
<path d="M331.251 46.6591C333.458 47.2297 335 49.2206 335 51.5C335 53.7794 333.458 55.7703 331.251 56.3409L172.128 97.4771C170.631 97.8642 169.038 97.5365 167.815 96.5895C166.593 95.6425 165.877 94.1829 165.877 92.6362L165.877 10.3638C165.877 8.81709 166.593 7.35746 167.815 6.41048C169.038 5.46351 170.631 5.13581 172.128 5.52293L331.251 46.6591Z" fill="#454545"/>
<path d="M331.251 46.6591C333.458 47.2297 335 49.2206 335 51.5C335 53.7794 333.458 55.7703 331.251 56.3409L172.128 97.4771C170.631 97.8642 169.038 97.5365 167.815 96.5895C166.593 95.6425 165.877 94.1829 165.877 92.6362L165.877 10.3638C165.877 8.81709 166.593 7.35746 167.815 6.41048C169.038 5.46351 170.631 5.13581 172.128 5.52293L331.251 46.6591Z" fill="#454545"/>
<path d="M331.251 46.6591C333.458 47.2297 335 49.2206 335 51.5C335 53.7794 333.458 55.7703 331.251 56.3409L172.128 97.4771C170.631 97.8642 169.038 97.5365 167.815 96.5895C166.593 95.6425 165.877 94.1829 165.877 92.6362L165.877 10.3638C165.877 8.81709 166.593 7.35746 167.815 6.41048C169.038 5.46351 170.631 5.13581 172.128 5.52293L331.251 46.6591Z" stroke="white" stroke-width="10" stroke-linejoin="round"/>
<path d="M223 310.5C223 320.892 217.475 330.657 207.839 337.987C198.199 345.32 184.66 350 169.5 350C154.34 350 140.801 345.32 131.161 337.987C121.525 330.657 116 320.892 116 310.5C116 300.108 121.525 290.343 131.161 283.013C140.801 275.68 154.34 271 169.5 271C184.66 271 198.199 275.68 207.839 283.013C217.475 290.343 223 300.108 223 310.5Z" fill="#454545" stroke="white" stroke-width="10"/>
<path d="M120.498 292L169.5 139.358L218.502 292H120.498Z" fill="#454545" stroke="white" stroke-width="10"/>
<path d="M169.5 176L215.832 299.75H123.168L169.5 176Z" fill="#454545"/>
<path d="M170.001 117C65.4981 117 39.5184 199.718 39.8106 236H170.878H301.945C283.581 160.939 257.234 123.258 170.001 117Z" fill="#FFD913"/>
<path d="M170.001 117C65.4981 117 39.5184 199.718 39.8106 236H170.878H301.945C283.581 160.939 257.234 123.258 170.001 117Z" fill="url(#paint0_linear_5_37)" fill-opacity="0.2"/>
<path d="M170.001 117C65.4981 117 39.5184 199.718 39.8106 236H170.878H301.945C283.581 160.939 257.234 123.258 170.001 117Z" stroke="#F8F8F8" stroke-width="10" stroke-linejoin="round"/>
<path d="M255.47 176C262.259 176 263.553 172.259 263.35 170.389L259.713 75L250.62 77.1581L247.589 170.389C248.716 174.147 250.067 175.677 255.47 176Z" fill="#454545" stroke="white" stroke-width="8"/>
<path d="M169.123 158C211.257 156.561 229.982 139.649 238.822 132.726V80L169.123 97.8659L99.4247 80V132.726C121.385 151.2 137.2 155.827 169.123 158Z" fill="#454545" stroke="white" stroke-width="8"/>
<path d="M169.123 9L180.892 13.5H157.355L169.123 9Z" fill="#454545"/>
<path d="M169.123 94L180.892 89.5H157.355L169.123 94Z" fill="#454545"/>
<rect x="158.164" y="13" width="21.0411" height="77" fill="#454545"/>
<g filter="url(#filter0_d_5_37)">
<mask id="path-12-outside-1_5_37" maskUnits="userSpaceOnUse" x="346" y="142" width="987" height="173" fill="black">
<rect fill="white" x="346" y="142" width="987" height="173"/>
<path d="M399.24 312C381.88 312 369.2 308 361.2 300C353.2 292 349.2 279.32 349.2 261.96V207.36C349.2 189.84 353.16 177.12 361.08 169.2C369.08 161.28 381.72 157.32 399 157.32H428.04C442.76 157.32 453.72 160.4 460.92 166.56C468.12 172.64 472.08 182.44 472.8 195.96C473.04 198.12 472.6 199.76 471.48 200.88C470.44 202 468.88 202.56 466.8 202.56C462.8 202.56 460.6 200.44 460.2 196.2C459.64 186.28 456.92 179.44 452.04 175.68C447.16 171.84 439.16 169.92 428.04 169.92H399C389.8 169.92 382.48 171.12 377.04 173.52C371.6 175.84 367.68 179.76 365.28 185.28C362.96 190.72 361.8 198.08 361.8 207.36V261.96C361.8 271.24 363 278.6 365.4 284.04C367.8 289.48 371.72 293.4 377.16 295.8C382.6 298.2 389.96 299.4 399.24 299.4H428.04C436.2 299.4 442.64 298.4 447.36 296.4C452.16 294.4 455.56 291.04 457.56 286.32C459.56 281.6 460.56 275.08 460.56 266.76V251.76L434.28 251.52C430.12 251.52 428.04 249.4 428.04 245.16C428.04 241 430.12 238.92 434.28 238.92L466.92 239.16C471.08 239.16 473.16 241.24 473.16 245.4V266.76C473.16 282.6 469.6 294.12 462.48 301.32C455.36 308.44 443.88 312 428.04 312H399.24ZM518.644 312C514.404 312 512.284 309.88 512.284 305.64V204.84C512.284 200.68 514.404 198.6 518.644 198.6C522.804 198.6 524.884 200.68 524.884 204.84V223.32C529.044 215.32 535.044 209.2 542.884 204.96C550.804 200.72 560.164 198.6 570.964 198.6C575.204 198.6 577.324 200.68 577.324 204.84C577.324 209.08 575.204 211.2 570.964 211.2C556.724 211.2 545.684 214.44 537.844 220.92C530.004 227.32 525.684 236.48 524.884 248.4V305.64C524.884 309.88 522.804 312 518.644 312ZM606.353 176.76C600.833 176.76 598.073 173.92 598.073 168.24V162.84C598.073 157.32 600.833 154.56 606.353 154.56H611.753C617.113 154.56 619.793 157.32 619.793 162.84V168.24C619.793 173.92 617.113 176.76 611.753 176.76H606.353ZM609.113 312C604.873 312 602.753 309.88 602.753 305.64V204.84C602.753 200.68 604.873 198.6 609.113 198.6C613.273 198.6 615.353 200.68 615.353 204.84V305.64C615.353 309.88 613.273 312 609.113 312ZM666.534 312C662.294 312 660.174 309.88 660.174 305.64V151.8C660.174 147.64 662.294 145.56 666.534 145.56C670.694 145.56 672.774 147.64 672.774 151.8V215.28C676.374 209.76 681.494 205.56 688.134 202.68C694.854 199.8 703.494 198.36 714.054 198.36H723.174C738.134 198.36 749.054 201.84 755.934 208.8C762.894 215.76 766.374 226.72 766.374 241.68V268.68C766.374 283.64 762.894 294.6 755.934 301.56C749.054 308.52 738.134 312 723.174 312H714.054C703.494 312 694.854 310.6 688.134 307.8C681.494 304.92 676.374 300.68 672.774 295.08V305.64C672.774 309.88 670.694 312 666.534 312ZM714.054 299.4H723.174C734.614 299.4 742.574 297.16 747.054 292.68C751.534 288.12 753.774 280.12 753.774 268.68V241.68C753.774 230.24 751.494 222.28 746.934 217.8C742.454 213.24 734.534 210.96 723.174 210.96H714.054C701.574 210.96 691.574 212.92 684.054 216.84C676.534 220.76 672.774 226.72 672.774 234.72V276.12C672.934 283.88 676.774 289.72 684.294 293.64C691.814 297.48 701.734 299.4 714.054 299.4ZM814.425 312C810.185 312 808.065 309.88 808.065 305.64V163.68C808.065 159.44 810.185 157.32 814.425 157.32C817.465 157.32 819.865 158.72 821.625 161.52L881.385 252.84L878.505 253.2L938.265 161.52C939.945 158.72 942.465 157.32 945.825 157.32C949.585 157.32 951.465 159.44 951.465 163.68V305.64C951.465 309.88 949.385 312 945.225 312C940.985 312 938.865 309.88 938.865 305.64V176.28L942.585 177.48L887.145 261.96C885.385 264.68 882.865 266.04 879.585 266.04C876.705 266.04 874.385 264.68 872.625 261.96L817.185 177.48L820.665 178.8V305.64C820.665 309.88 818.585 312 814.425 312ZM1029.99 312C1017.51 312 1008.35 309.12 1002.51 303.36C996.748 297.52 993.868 288.36 993.868 275.88C993.868 263.4 996.788 254.24 1002.63 248.4C1008.47 242.56 1017.59 239.64 1029.99 239.64H1084.59C1084.43 229.08 1082.03 221.72 1077.39 217.56C1072.83 213.32 1065.03 211.2 1053.99 211.2H1040.07C1029.91 211.2 1022.47 212.28 1017.75 214.44C1013.03 216.6 1010.11 220.28 1008.99 225.48C1008.43 227.48 1007.67 228.96 1006.71 229.92C1005.83 230.8 1004.39 231.24 1002.39 231.24C1000.31 231.24 998.668 230.68 997.468 229.56C996.348 228.36 995.948 226.76 996.268 224.76C997.308 215.64 1001.43 209 1008.63 204.84C1015.91 200.68 1026.39 198.6 1040.07 198.6H1053.99C1068.95 198.6 1079.87 202.08 1086.75 209.04C1093.71 215.92 1097.19 226.84 1097.19 241.8V305.64C1097.19 309.88 1095.11 312 1090.95 312C1086.71 312 1084.59 309.88 1084.59 305.64V293.76C1076.91 305.92 1063.19 312 1043.43 312H1029.99ZM1029.99 299.4H1043.43C1051.19 299.4 1057.99 298.56 1063.83 296.88C1069.75 295.12 1074.51 292.32 1078.11 288.48C1081.71 284.64 1083.87 279.52 1084.59 273.12V252.24H1029.99C1021.11 252.24 1014.95 253.96 1011.51 257.4C1008.15 260.76 1006.47 266.92 1006.47 275.88C1006.47 284.76 1008.15 290.92 1011.51 294.36C1014.95 297.72 1021.11 299.4 1029.99 299.4ZM1186.26 312C1171.54 312 1160.78 308.6 1153.98 301.8C1147.18 295 1143.78 284.28 1143.78 269.64V211.2H1129.5C1125.26 211.2 1123.14 209.08 1123.14 204.84C1123.14 200.68 1125.26 198.6 1129.5 198.6H1143.78V172.8C1143.78 168.56 1145.86 166.44 1150.02 166.44C1154.26 166.44 1156.38 168.56 1156.38 172.8V198.6H1186.5C1190.66 198.6 1192.74 200.68 1192.74 204.84C1192.74 209.08 1190.66 211.2 1186.5 211.2H1156.38V269.64C1156.38 280.84 1158.54 288.6 1162.86 292.92C1167.26 297.24 1175.06 299.4 1186.26 299.4C1188.58 299.4 1190.22 299.92 1191.18 300.96C1192.22 302 1192.74 303.56 1192.74 305.64C1192.74 309.88 1190.58 312 1186.26 312ZM1232.32 312C1228.08 312 1225.96 309.88 1225.96 305.64V151.8C1225.96 147.64 1228.08 145.56 1232.32 145.56C1236.48 145.56 1238.56 147.64 1238.56 151.8V216.36C1246.16 204.52 1259.92 198.6 1279.84 198.6H1286.56C1301.52 198.6 1312.44 202.08 1319.32 209.04C1326.28 215.92 1329.76 226.84 1329.76 241.8V305.64C1329.76 309.88 1327.68 312 1323.52 312C1319.28 312 1317.16 309.88 1317.16 305.64V241.8C1317.16 230.36 1314.88 222.4 1310.32 217.92C1305.84 213.44 1297.92 211.2 1286.56 211.2H1279.84C1267.44 211.2 1257.68 213.16 1250.56 217.08C1243.44 221 1239.44 227.12 1238.56 235.44V305.64C1238.56 309.88 1236.48 312 1232.32 312Z"/>
</mask>
<path d="M399.24 312C381.88 312 369.2 308 361.2 300C353.2 292 349.2 279.32 349.2 261.96V207.36C349.2 189.84 353.16 177.12 361.08 169.2C369.08 161.28 381.72 157.32 399 157.32H428.04C442.76 157.32 453.72 160.4 460.92 166.56C468.12 172.64 472.08 182.44 472.8 195.96C473.04 198.12 472.6 199.76 471.48 200.88C470.44 202 468.88 202.56 466.8 202.56C462.8 202.56 460.6 200.44 460.2 196.2C459.64 186.28 456.92 179.44 452.04 175.68C447.16 171.84 439.16 169.92 428.04 169.92H399C389.8 169.92 382.48 171.12 377.04 173.52C371.6 175.84 367.68 179.76 365.28 185.28C362.96 190.72 361.8 198.08 361.8 207.36V261.96C361.8 271.24 363 278.6 365.4 284.04C367.8 289.48 371.72 293.4 377.16 295.8C382.6 298.2 389.96 299.4 399.24 299.4H428.04C436.2 299.4 442.64 298.4 447.36 296.4C452.16 294.4 455.56 291.04 457.56 286.32C459.56 281.6 460.56 275.08 460.56 266.76V251.76L434.28 251.52C430.12 251.52 428.04 249.4 428.04 245.16C428.04 241 430.12 238.92 434.28 238.92L466.92 239.16C471.08 239.16 473.16 241.24 473.16 245.4V266.76C473.16 282.6 469.6 294.12 462.48 301.32C455.36 308.44 443.88 312 428.04 312H399.24ZM518.644 312C514.404 312 512.284 309.88 512.284 305.64V204.84C512.284 200.68 514.404 198.6 518.644 198.6C522.804 198.6 524.884 200.68 524.884 204.84V223.32C529.044 215.32 535.044 209.2 542.884 204.96C550.804 200.72 560.164 198.6 570.964 198.6C575.204 198.6 577.324 200.68 577.324 204.84C577.324 209.08 575.204 211.2 570.964 211.2C556.724 211.2 545.684 214.44 537.844 220.92C530.004 227.32 525.684 236.48 524.884 248.4V305.64C524.884 309.88 522.804 312 518.644 312ZM606.353 176.76C600.833 176.76 598.073 173.92 598.073 168.24V162.84C598.073 157.32 600.833 154.56 606.353 154.56H611.753C617.113 154.56 619.793 157.32 619.793 162.84V168.24C619.793 173.92 617.113 176.76 611.753 176.76H606.353ZM609.113 312C604.873 312 602.753 309.88 602.753 305.64V204.84C602.753 200.68 604.873 198.6 609.113 198.6C613.273 198.6 615.353 200.68 615.353 204.84V305.64C615.353 309.88 613.273 312 609.113 312ZM666.534 312C662.294 312 660.174 309.88 660.174 305.64V151.8C660.174 147.64 662.294 145.56 666.534 145.56C670.694 145.56 672.774 147.64 672.774 151.8V215.28C676.374 209.76 681.494 205.56 688.134 202.68C694.854 199.8 703.494 198.36 714.054 198.36H723.174C738.134 198.36 749.054 201.84 755.934 208.8C762.894 215.76 766.374 226.72 766.374 241.68V268.68C766.374 283.64 762.894 294.6 755.934 301.56C749.054 308.52 738.134 312 723.174 312H714.054C703.494 312 694.854 310.6 688.134 307.8C681.494 304.92 676.374 300.68 672.774 295.08V305.64C672.774 309.88 670.694 312 666.534 312ZM714.054 299.4H723.174C734.614 299.4 742.574 297.16 747.054 292.68C751.534 288.12 753.774 280.12 753.774 268.68V241.68C753.774 230.24 751.494 222.28 746.934 217.8C742.454 213.24 734.534 210.96 723.174 210.96H714.054C701.574 210.96 691.574 212.92 684.054 216.84C676.534 220.76 672.774 226.72 672.774 234.72V276.12C672.934 283.88 676.774 289.72 684.294 293.64C691.814 297.48 701.734 299.4 714.054 299.4ZM814.425 312C810.185 312 808.065 309.88 808.065 305.64V163.68C808.065 159.44 810.185 157.32 814.425 157.32C817.465 157.32 819.865 158.72 821.625 161.52L881.385 252.84L878.505 253.2L938.265 161.52C939.945 158.72 942.465 157.32 945.825 157.32C949.585 157.32 951.465 159.44 951.465 163.68V305.64C951.465 309.88 949.385 312 945.225 312C940.985 312 938.865 309.88 938.865 305.64V176.28L942.585 177.48L887.145 261.96C885.385 264.68 882.865 266.04 879.585 266.04C876.705 266.04 874.385 264.68 872.625 261.96L817.185 177.48L820.665 178.8V305.64C820.665 309.88 818.585 312 814.425 312ZM1029.99 312C1017.51 312 1008.35 309.12 1002.51 303.36C996.748 297.52 993.868 288.36 993.868 275.88C993.868 263.4 996.788 254.24 1002.63 248.4C1008.47 242.56 1017.59 239.64 1029.99 239.64H1084.59C1084.43 229.08 1082.03 221.72 1077.39 217.56C1072.83 213.32 1065.03 211.2 1053.99 211.2H1040.07C1029.91 211.2 1022.47 212.28 1017.75 214.44C1013.03 216.6 1010.11 220.28 1008.99 225.48C1008.43 227.48 1007.67 228.96 1006.71 229.92C1005.83 230.8 1004.39 231.24 1002.39 231.24C1000.31 231.24 998.668 230.68 997.468 229.56C996.348 228.36 995.948 226.76 996.268 224.76C997.308 215.64 1001.43 209 1008.63 204.84C1015.91 200.68 1026.39 198.6 1040.07 198.6H1053.99C1068.95 198.6 1079.87 202.08 1086.75 209.04C1093.71 215.92 1097.19 226.84 1097.19 241.8V305.64C1097.19 309.88 1095.11 312 1090.95 312C1086.71 312 1084.59 309.88 1084.59 305.64V293.76C1076.91 305.92 1063.19 312 1043.43 312H1029.99ZM1029.99 299.4H1043.43C1051.19 299.4 1057.99 298.56 1063.83 296.88C1069.75 295.12 1074.51 292.32 1078.11 288.48C1081.71 284.64 1083.87 279.52 1084.59 273.12V252.24H1029.99C1021.11 252.24 1014.95 253.96 1011.51 257.4C1008.15 260.76 1006.47 266.92 1006.47 275.88C1006.47 284.76 1008.15 290.92 1011.51 294.36C1014.95 297.72 1021.11 299.4 1029.99 299.4ZM1186.26 312C1171.54 312 1160.78 308.6 1153.98 301.8C1147.18 295 1143.78 284.28 1143.78 269.64V211.2H1129.5C1125.26 211.2 1123.14 209.08 1123.14 204.84C1123.14 200.68 1125.26 198.6 1129.5 198.6H1143.78V172.8C1143.78 168.56 1145.86 166.44 1150.02 166.44C1154.26 166.44 1156.38 168.56 1156.38 172.8V198.6H1186.5C1190.66 198.6 1192.74 200.68 1192.74 204.84C1192.74 209.08 1190.66 211.2 1186.5 211.2H1156.38V269.64C1156.38 280.84 1158.54 288.6 1162.86 292.92C1167.26 297.24 1175.06 299.4 1186.26 299.4C1188.58 299.4 1190.22 299.92 1191.18 300.96C1192.22 302 1192.74 303.56 1192.74 305.64C1192.74 309.88 1190.58 312 1186.26 312ZM1232.32 312C1228.08 312 1225.96 309.88 1225.96 305.64V151.8C1225.96 147.64 1228.08 145.56 1232.32 145.56C1236.48 145.56 1238.56 147.64 1238.56 151.8V216.36C1246.16 204.52 1259.92 198.6 1279.84 198.6H1286.56C1301.52 198.6 1312.44 202.08 1319.32 209.04C1326.28 215.92 1329.76 226.84 1329.76 241.8V305.64C1329.76 309.88 1327.68 312 1323.52 312C1319.28 312 1317.16 309.88 1317.16 305.64V241.8C1317.16 230.36 1314.88 222.4 1310.32 217.92C1305.84 213.44 1297.92 211.2 1286.56 211.2H1279.84C1267.44 211.2 1257.68 213.16 1250.56 217.08C1243.44 221 1239.44 227.12 1238.56 235.44V305.64C1238.56 309.88 1236.48 312 1232.32 312Z" fill="white"/>
<path d="M361.2 300L363.321 297.879L363.321 297.879L361.2 300ZM361.08 169.2L358.969 167.068L358.964 167.073L358.959 167.079L361.08 169.2ZM460.92 166.56L458.97 168.84L458.977 168.846L458.984 168.852L460.92 166.56ZM472.8 195.96L469.804 196.12L469.809 196.206L469.818 196.291L472.8 195.96ZM471.48 200.88L469.359 198.759L469.319 198.798L469.282 198.839L471.48 200.88ZM460.2 196.2L457.205 196.369L457.208 196.426L457.213 196.482L460.2 196.2ZM452.04 175.68L450.185 178.038L450.197 178.047L450.209 178.056L452.04 175.68ZM377.04 173.52L378.217 176.28L378.234 176.272L378.251 176.265L377.04 173.52ZM365.28 185.28L362.529 184.084L362.525 184.093L362.52 184.103L365.28 185.28ZM365.4 284.04L362.655 285.251L362.655 285.251L365.4 284.04ZM377.16 295.8L375.949 298.545L375.949 298.545L377.16 295.8ZM447.36 296.4L446.206 293.631L446.198 293.634L446.19 293.638L447.36 296.4ZM457.56 286.32L454.798 285.15L454.798 285.15L457.56 286.32ZM460.56 251.76H463.56V248.787L460.587 248.76L460.56 251.76ZM434.28 251.52L434.307 248.52L434.294 248.52H434.28V251.52ZM434.28 238.92L434.302 235.92L434.291 235.92H434.28V238.92ZM466.92 239.16L466.898 242.16L466.909 242.16H466.92V239.16ZM462.48 301.32L464.601 303.441L464.607 303.435L464.613 303.429L462.48 301.32ZM399.24 309C382.259 309 370.52 305.078 363.321 297.879L359.079 302.121C367.88 310.922 381.501 315 399.24 315V309ZM363.321 297.879C356.122 290.68 352.2 278.941 352.2 261.96H346.2C346.2 279.699 350.278 293.32 359.079 302.121L363.321 297.879ZM352.2 261.96V207.36H346.2V261.96H352.2ZM352.2 207.36C352.2 190.2 356.091 178.431 363.201 171.321L358.959 167.079C350.229 175.809 346.2 189.48 346.2 207.36H352.2ZM363.191 171.332C370.391 164.203 382.097 160.32 399 160.32V154.32C381.343 154.32 367.769 158.357 358.969 167.068L363.191 171.332ZM399 160.32H428.04V154.32H399V160.32ZM428.04 160.32C442.422 160.32 452.544 163.342 458.97 168.84L462.87 164.28C454.896 157.458 443.098 154.32 428.04 154.32V160.32ZM458.984 168.852C465.318 174.2 469.109 183.06 469.804 196.12L475.796 195.8C475.051 181.82 470.922 171.08 462.856 164.268L458.984 168.852ZM469.818 196.291C469.997 197.903 469.617 198.501 469.359 198.759L473.601 203.001C475.583 201.019 476.083 198.337 475.782 195.629L469.818 196.291ZM469.282 198.839C468.992 199.151 468.358 199.56 466.8 199.56V205.56C469.402 205.56 471.888 204.849 473.678 202.921L469.282 198.839ZM466.8 199.56C465.328 199.56 464.616 199.18 464.232 198.81C463.82 198.413 463.346 197.604 463.187 195.918L457.213 196.482C457.454 199.036 458.28 201.407 460.068 203.13C461.884 204.88 464.272 205.56 466.8 205.56V199.56ZM463.195 196.031C462.616 185.764 459.769 177.848 453.871 173.304L450.209 178.056C454.071 181.032 456.664 186.796 457.205 196.369L463.195 196.031ZM453.895 173.322C448.207 168.847 439.361 166.92 428.04 166.92V172.92C438.959 172.92 446.113 174.833 450.185 178.038L453.895 173.322ZM428.04 166.92H399V172.92H428.04V166.92ZM399 166.92C389.588 166.92 381.802 168.14 375.829 170.775L378.251 176.265C383.158 174.1 390.012 172.92 399 172.92V166.92ZM375.863 170.76C369.704 173.387 365.228 177.875 362.529 184.084L368.031 186.476C370.132 181.645 373.496 178.293 378.217 176.28L375.863 170.76ZM362.52 184.103C359.977 190.066 358.8 197.881 358.8 207.36H364.8C364.8 198.279 365.943 191.374 368.04 186.457L362.52 184.103ZM358.8 207.36V261.96H364.8V207.36H358.8ZM358.8 261.96C358.8 271.448 360.019 279.276 362.655 285.251L368.145 282.829C365.981 277.924 364.8 271.032 364.8 261.96H358.8ZM362.655 285.251C365.357 291.376 369.824 295.843 375.949 298.545L378.371 293.055C373.616 290.957 370.243 287.584 368.145 282.829L362.655 285.251ZM375.949 298.545C381.924 301.181 389.752 302.4 399.24 302.4V296.4C390.168 296.4 383.276 295.219 378.371 293.055L375.949 298.545ZM399.24 302.4H428.04V296.4H399.24V302.4ZM428.04 302.4C436.391 302.4 443.286 301.385 448.53 299.162L446.19 293.638C441.994 295.415 436.009 296.4 428.04 296.4V302.4ZM448.514 299.169C454.027 296.872 458.011 292.945 460.322 287.49L454.798 285.15C453.109 289.135 450.293 291.928 446.206 293.631L448.514 299.169ZM460.322 287.49C462.547 282.241 463.56 275.262 463.56 266.76H457.56C457.56 274.898 456.573 280.959 454.798 285.15L460.322 287.49ZM463.56 266.76V251.76H457.56V266.76H463.56ZM460.587 248.76L434.307 248.52L434.253 254.52L460.533 254.76L460.587 248.76ZM434.28 248.52C432.677 248.52 432.023 248.116 431.741 247.829C431.45 247.532 431.04 246.832 431.04 245.16H425.04C425.04 247.728 425.67 250.208 427.459 252.031C429.257 253.864 431.723 254.52 434.28 254.52V248.52ZM431.04 245.16C431.04 243.542 431.442 242.88 431.721 242.601C432 242.322 432.662 241.92 434.28 241.92V235.92C431.738 235.92 429.28 236.558 427.479 238.359C425.678 240.16 425.04 242.618 425.04 245.16H431.04ZM434.258 241.92L466.898 242.16L466.942 236.16L434.302 235.92L434.258 241.92ZM466.92 242.16C468.538 242.16 469.2 242.562 469.479 242.841C469.758 243.12 470.16 243.782 470.16 245.4H476.16C476.16 242.858 475.522 240.4 473.721 238.599C471.92 236.798 469.462 236.16 466.92 236.16V242.16ZM470.16 245.4V266.76H476.16V245.4H470.16ZM470.16 266.76C470.16 282.242 466.668 292.819 460.347 299.211L464.613 303.429C472.532 295.421 476.16 282.958 476.16 266.76H470.16ZM460.359 299.199C454.051 305.506 443.526 309 428.04 309V315C444.234 315 456.669 311.374 464.601 303.441L460.359 299.199ZM428.04 309H399.24V315H428.04V309ZM524.884 223.32H521.884L527.545 224.704L524.884 223.32ZM542.884 204.96L541.468 202.315L541.457 202.321L542.884 204.96ZM537.844 220.92L539.741 223.244L539.748 223.238L539.755 223.232L537.844 220.92ZM524.884 248.4L521.89 248.199L521.884 248.299V248.4H524.884ZM518.644 309C516.986 309 516.294 308.588 515.995 308.289C515.696 307.99 515.284 307.298 515.284 305.64H509.284C509.284 308.222 509.931 310.71 511.752 312.531C513.573 314.352 516.061 315 518.644 315V309ZM515.284 305.64V204.84H509.284V305.64H515.284ZM515.284 204.84C515.284 203.237 515.688 202.583 515.975 202.301C516.272 202.01 516.972 201.6 518.644 201.6V195.6C516.076 195.6 513.596 196.23 511.773 198.019C509.939 199.817 509.284 202.283 509.284 204.84H515.284ZM518.644 201.6C520.261 201.6 520.923 202.002 521.202 202.281C521.481 202.56 521.884 203.222 521.884 204.84H527.884C527.884 202.298 527.246 199.84 525.445 198.039C523.644 196.238 521.186 195.6 518.644 195.6V201.6ZM521.884 204.84V223.32H527.884V204.84H521.884ZM527.545 224.704C531.432 217.23 537.005 211.55 544.311 207.599L541.457 202.321C533.082 206.85 526.655 213.41 522.222 221.936L527.545 224.704ZM544.3 207.605C551.704 203.641 560.558 201.6 570.964 201.6V195.6C559.769 195.6 549.903 197.799 541.468 202.315L544.3 207.605ZM570.964 201.6C572.636 201.6 573.336 202.01 573.633 202.301C573.919 202.583 574.324 203.237 574.324 204.84H580.324C580.324 202.283 579.668 199.817 577.835 198.019C576.012 196.23 573.532 195.6 570.964 195.6V201.6ZM574.324 204.84C574.324 206.498 573.911 207.19 573.612 207.489C573.313 207.788 572.621 208.2 570.964 208.2V214.2C573.546 214.2 576.034 213.552 577.855 211.731C579.676 209.91 580.324 207.422 580.324 204.84H574.324ZM570.964 208.2C556.302 208.2 544.49 211.535 535.932 218.608L539.755 223.232C546.877 217.345 557.146 214.2 570.964 214.2V208.2ZM535.947 218.596C527.347 225.616 522.735 235.613 521.89 248.199L527.877 248.601C528.632 237.347 532.661 229.024 539.741 223.244L535.947 218.596ZM521.884 248.4V305.64H527.884V248.4H521.884ZM521.884 305.64C521.884 307.312 521.474 308.012 521.182 308.309C520.901 308.596 520.247 309 518.644 309V315C521.201 315 523.666 314.344 525.465 312.511C527.254 310.688 527.884 308.208 527.884 305.64H521.884ZM606.353 173.76C604.077 173.76 602.916 173.18 602.294 172.539C601.656 171.883 601.073 170.639 601.073 168.24H595.073C595.073 171.521 595.869 174.537 597.991 176.721C600.129 178.92 603.108 179.76 606.353 179.76V173.76ZM601.073 168.24V162.84H595.073V168.24H601.073ZM601.073 162.84C601.073 160.542 601.645 159.37 602.264 158.751C602.883 158.132 604.055 157.56 606.353 157.56V151.56C603.13 151.56 600.162 152.368 598.021 154.509C595.88 156.65 595.073 159.618 595.073 162.84H601.073ZM606.353 157.56H611.753V151.56H606.353V157.56ZM611.753 157.56C613.947 157.56 615.048 158.12 615.63 158.72C616.229 159.336 616.793 160.521 616.793 162.84H622.793C622.793 159.639 622.016 156.684 619.935 154.54C617.837 152.38 614.918 151.56 611.753 151.56V157.56ZM616.793 162.84V168.24H622.793V162.84H616.793ZM616.793 168.24C616.793 170.66 616.218 171.916 615.601 172.571C615.014 173.193 613.924 173.76 611.753 173.76V179.76C614.941 179.76 617.871 178.907 619.964 176.689C622.027 174.504 622.793 171.5 622.793 168.24H616.793ZM611.753 173.76H606.353V179.76H611.753V173.76ZM609.113 309C607.455 309 606.763 308.588 606.464 308.289C606.165 307.99 605.753 307.298 605.753 305.64H599.753C599.753 308.222 600.4 310.71 602.221 312.531C604.042 314.352 606.53 315 609.113 315V309ZM605.753 305.64V204.84H599.753V305.64H605.753ZM605.753 204.84C605.753 203.237 606.157 202.583 606.444 202.301C606.741 202.01 607.441 201.6 609.113 201.6V195.6C606.544 195.6 604.064 196.23 602.241 198.019C600.408 199.817 599.753 202.283 599.753 204.84H605.753ZM609.113 201.6C610.73 201.6 611.392 202.002 611.671 202.281C611.95 202.56 612.353 203.222 612.353 204.84H618.353C618.353 202.298 617.715 199.84 615.914 198.039C614.113 196.238 611.655 195.6 609.113 195.6V201.6ZM612.353 204.84V305.64H618.353V204.84H612.353ZM612.353 305.64C612.353 307.312 611.943 308.012 611.651 308.309C611.37 308.596 610.715 309 609.113 309V315C611.67 315 614.135 314.344 615.934 312.511C617.722 310.688 618.353 308.208 618.353 305.64H612.353ZM672.774 215.28H669.774V225.372L675.287 216.919L672.774 215.28ZM688.134 202.68L686.953 199.923L686.941 199.928L688.134 202.68ZM755.934 208.8L753.801 210.909L753.807 210.915L753.813 210.921L755.934 208.8ZM755.934 301.56L753.813 299.439L753.807 299.445L753.801 299.451L755.934 301.56ZM688.134 307.8L686.941 310.552L686.961 310.561L686.981 310.569L688.134 307.8ZM672.774 295.08L675.298 293.458L669.774 284.866V295.08H672.774ZM747.054 292.68L749.176 294.801L749.185 294.792L749.194 294.782L747.054 292.68ZM746.934 217.8L744.794 219.902L744.813 219.921L744.832 219.94L746.934 217.8ZM684.054 216.84L682.668 214.18L682.668 214.18L684.054 216.84ZM672.774 276.12H669.774V276.151L669.775 276.182L672.774 276.12ZM684.294 293.64L682.908 296.3L682.919 296.306L682.93 296.312L684.294 293.64ZM666.534 309C664.877 309 664.185 308.588 663.886 308.289C663.587 307.99 663.174 307.298 663.174 305.64H657.174C657.174 308.222 657.822 310.71 659.643 312.531C661.464 314.352 663.952 315 666.534 315V309ZM663.174 305.64V151.8H657.174V305.64H663.174ZM663.174 151.8C663.174 150.197 663.579 149.543 663.865 149.261C664.163 148.97 664.863 148.56 666.534 148.56V142.56C663.966 142.56 661.486 143.19 659.663 144.979C657.83 146.777 657.174 149.243 657.174 151.8H663.174ZM666.534 148.56C668.152 148.56 668.814 148.962 669.093 149.241C669.372 149.52 669.774 150.182 669.774 151.8H675.774C675.774 149.258 675.137 146.8 673.336 144.999C671.535 143.198 669.077 142.56 666.534 142.56V148.56ZM669.774 151.8V215.28H675.774V151.8H669.774ZM675.287 216.919C678.535 211.939 683.172 208.102 689.328 205.432L686.941 199.928C679.816 203.018 674.214 207.581 670.262 213.641L675.287 216.919ZM689.316 205.437C695.535 202.772 703.735 201.36 714.054 201.36V195.36C703.254 195.36 694.173 196.828 686.953 199.923L689.316 205.437ZM714.054 201.36H723.174V195.36H714.054V201.36ZM723.174 201.36C737.749 201.36 747.722 204.759 753.801 210.909L758.068 206.691C750.387 198.921 738.52 195.36 723.174 195.36V201.36ZM753.813 210.921C759.977 217.085 763.374 227.109 763.374 241.68H769.374C769.374 226.331 765.812 214.435 758.056 206.679L753.813 210.921ZM763.374 241.68V268.68H769.374V241.68H763.374ZM763.374 268.68C763.374 283.251 759.977 293.275 753.813 299.439L758.056 303.681C765.812 295.925 769.374 284.029 769.374 268.68H763.374ZM753.801 299.451C747.722 305.601 737.749 309 723.174 309V315C738.52 315 750.387 311.439 758.068 303.669L753.801 299.451ZM723.174 309H714.054V315H723.174V309ZM714.054 309C703.727 309 695.517 307.626 689.288 305.031L686.981 310.569C694.192 313.574 703.262 315 714.054 315V309ZM689.328 305.048C683.184 302.383 678.548 298.514 675.298 293.458L670.251 296.702C674.2 302.846 679.805 307.457 686.941 310.552L689.328 305.048ZM669.774 295.08V305.64H675.774V295.08H669.774ZM669.774 305.64C669.774 307.312 669.364 308.012 669.073 308.309C668.792 308.596 668.137 309 666.534 309V315C669.091 315 671.557 314.344 673.356 312.511C675.144 310.688 675.774 308.208 675.774 305.64H669.774ZM714.054 302.4H723.174V296.4H714.054V302.4ZM723.174 302.4C734.826 302.4 743.823 300.154 749.176 294.801L744.933 290.559C741.326 294.166 734.403 296.4 723.174 296.4V302.4ZM749.194 294.782C754.525 289.357 756.774 280.339 756.774 268.68H750.774C750.774 279.901 748.544 286.883 744.914 290.578L749.194 294.782ZM756.774 268.68V241.68H750.774V268.68H756.774ZM756.774 241.68C756.774 230.019 754.484 221.012 749.037 215.66L744.832 219.94C748.504 223.548 750.774 230.461 750.774 241.68H756.774ZM749.074 215.698C743.725 210.253 734.763 207.96 723.174 207.96V213.96C734.306 213.96 741.183 216.227 744.794 219.902L749.074 215.698ZM723.174 207.96H714.054V213.96H723.174V207.96ZM714.054 207.96C701.302 207.96 690.77 209.956 682.668 214.18L685.441 219.5C692.379 215.884 701.847 213.96 714.054 213.96V207.96ZM682.668 214.18C678.533 216.335 675.273 219.137 673.057 222.649C670.835 226.171 669.774 230.232 669.774 234.72H675.774C675.774 231.208 676.593 228.289 678.132 225.851C679.676 223.403 682.056 221.265 685.441 219.5L682.668 214.18ZM669.774 234.72V276.12H675.774V234.72H669.774ZM669.775 276.182C669.865 280.562 671.004 284.525 673.268 287.968C675.523 291.398 678.79 294.154 682.908 296.3L685.681 290.98C682.278 289.206 679.866 287.082 678.281 284.672C676.705 282.275 675.843 279.438 675.774 276.058L669.775 276.182ZM682.93 296.312C691.022 300.444 701.462 302.4 714.054 302.4V296.4C702.007 296.4 692.607 294.516 685.659 290.968L682.93 296.312ZM821.625 161.52L819.085 163.117L819.1 163.14L819.115 163.163L821.625 161.52ZM881.385 252.84L881.757 255.817L886.528 255.22L883.895 251.197L881.385 252.84ZM878.505 253.2L875.992 251.562L872.461 256.979L878.877 256.177L878.505 253.2ZM938.265 161.52L940.778 163.158L940.809 163.111L940.837 163.063L938.265 161.52ZM938.865 176.28L939.786 173.425L935.865 172.16V176.28H938.865ZM942.585 177.48L945.093 179.126L947.254 175.834L943.506 174.625L942.585 177.48ZM887.145 261.96L884.637 260.314L884.632 260.322L884.626 260.33L887.145 261.96ZM872.625 261.96L875.144 260.33L875.138 260.322L875.133 260.314L872.625 261.96ZM817.185 177.48L818.249 174.675L809.604 171.396L814.677 179.126L817.185 177.48ZM820.665 178.8H823.665V176.729L821.729 175.995L820.665 178.8ZM814.425 309C812.767 309 812.075 308.588 811.776 308.289C811.477 307.99 811.065 307.298 811.065 305.64H805.065C805.065 308.222 805.713 310.71 807.534 312.531C809.355 314.352 811.843 315 814.425 315V309ZM811.065 305.64V163.68H805.065V305.64H811.065ZM811.065 163.68C811.065 162.022 811.477 161.33 811.776 161.031C812.075 160.732 812.767 160.32 814.425 160.32V154.32C811.843 154.32 809.355 154.968 807.534 156.789C805.713 158.61 805.065 161.098 805.065 163.68H811.065ZM814.425 160.32C816.329 160.32 817.816 161.098 819.085 163.117L824.165 159.923C821.914 156.342 818.601 154.32 814.425 154.32V160.32ZM819.115 163.163L878.875 254.483L883.895 251.197L824.135 159.877L819.115 163.163ZM881.013 249.863L878.133 250.223L878.877 256.177L881.757 255.817L881.013 249.863ZM881.018 254.838L940.778 163.158L935.752 159.882L875.992 251.562L881.018 254.838ZM940.837 163.063C941.956 161.199 943.481 160.32 945.825 160.32V154.32C941.449 154.32 937.934 156.241 935.693 159.977L940.837 163.063ZM945.825 160.32C947.143 160.32 947.61 160.675 947.81 160.9C948.071 161.195 948.465 161.94 948.465 163.68H954.465C954.465 161.18 953.919 158.745 952.3 156.92C950.62 155.025 948.267 154.32 945.825 154.32V160.32ZM948.465 163.68V305.64H954.465V163.68H948.465ZM948.465 305.64C948.465 307.312 948.055 308.012 947.764 308.309C947.482 308.596 946.828 309 945.225 309V315C947.782 315 950.248 314.344 952.046 312.511C953.835 310.688 954.465 308.208 954.465 305.64H948.465ZM945.225 309C943.567 309 942.875 308.588 942.576 308.289C942.277 307.99 941.865 307.298 941.865 305.64H935.865C935.865 308.222 936.513 310.71 938.334 312.531C940.155 314.352 942.643 315 945.225 315V309ZM941.865 305.64V176.28H935.865V305.64H941.865ZM937.944 179.135L941.664 180.335L943.506 174.625L939.786 173.425L937.944 179.135ZM940.077 175.834L884.637 260.314L889.653 263.606L945.093 179.126L940.077 175.834ZM884.626 260.33C883.427 262.183 881.863 263.04 879.585 263.04V269.04C883.867 269.04 887.343 267.177 889.664 263.59L884.626 260.33ZM879.585 263.04C877.864 263.04 876.432 262.322 875.144 260.33L870.106 263.59C872.338 267.038 875.546 269.04 879.585 269.04V263.04ZM875.133 260.314L819.693 175.834L814.677 179.126L870.117 263.606L875.133 260.314ZM816.121 180.285L819.601 181.605L821.729 175.995L818.249 174.675L816.121 180.285ZM817.665 178.8V305.64H823.665V178.8H817.665ZM817.665 305.64C817.665 307.312 817.255 308.012 816.964 308.309C816.682 308.596 816.028 309 814.425 309V315C816.982 315 819.448 314.344 821.246 312.511C823.035 310.688 823.665 308.208 823.665 305.64H817.665ZM1002.51 303.36L1000.37 305.467L1000.39 305.481L1000.4 305.496L1002.51 303.36ZM1002.63 248.4L1000.51 246.279L1000.51 246.279L1002.63 248.4ZM1084.59 239.64V242.64H1087.63L1087.59 239.595L1084.59 239.64ZM1077.39 217.56L1075.35 219.757L1075.37 219.776L1075.39 219.794L1077.39 217.56ZM1017.75 214.44L1019 217.168L1019 217.168L1017.75 214.44ZM1008.99 225.48L1011.88 226.289L1011.9 226.201L1011.92 226.112L1008.99 225.48ZM1006.71 229.92L1008.83 232.041L1008.83 232.041L1006.71 229.92ZM997.468 229.56L995.275 231.607L995.346 231.683L995.421 231.753L997.468 229.56ZM996.268 224.76L999.23 225.234L999.241 225.167L999.249 225.1L996.268 224.76ZM1008.63 204.84L1007.14 202.235L1007.13 202.239L1007.13 202.242L1008.63 204.84ZM1086.75 209.04L1084.61 211.149L1084.63 211.161L1084.64 211.174L1086.75 209.04ZM1084.59 293.76H1087.59V283.392L1082.05 292.158L1084.59 293.76ZM1063.83 296.88L1064.66 299.763L1064.67 299.759L1064.68 299.756L1063.83 296.88ZM1078.11 288.48L1075.92 286.428L1075.92 286.428L1078.11 288.48ZM1084.59 273.12L1087.57 273.455L1087.59 273.288V273.12H1084.59ZM1084.59 252.24H1087.59V249.24H1084.59V252.24ZM1011.51 294.36L1009.36 296.456L1009.39 296.481L1009.41 296.506L1011.51 294.36ZM1029.99 309C1017.89 309 1009.66 306.2 1004.61 301.224L1000.4 305.496C1007.04 312.04 1017.12 315 1029.99 315V309ZM1004.64 301.253C999.668 296.208 996.868 287.975 996.868 275.88H990.868C990.868 288.745 993.828 298.832 1000.37 305.467L1004.64 301.253ZM996.868 275.88C996.868 263.795 999.703 255.568 1004.75 250.521L1000.51 246.279C993.873 252.912 990.868 263.005 990.868 275.88H996.868ZM1004.75 250.521C1009.8 245.472 1017.99 242.64 1029.99 242.64V236.64C1017.19 236.64 1007.14 239.648 1000.51 246.279L1004.75 250.521ZM1029.99 242.64H1084.59V236.64H1029.99V242.64ZM1087.59 239.595C1087.42 228.75 1084.97 220.329 1079.39 215.326L1075.39 219.794C1079.09 223.111 1081.43 229.41 1081.59 239.685L1087.59 239.595ZM1079.43 215.363C1074.02 210.332 1065.25 208.2 1053.99 208.2V214.2C1064.8 214.2 1071.64 216.308 1075.35 219.757L1079.43 215.363ZM1053.99 208.2H1040.07V214.2H1053.99V208.2ZM1040.07 208.2C1029.81 208.2 1021.83 209.272 1016.5 211.712L1019 217.168C1023.11 215.288 1030 214.2 1040.07 214.2V208.2ZM1016.5 211.712C1010.89 214.277 1007.37 218.75 1006.06 224.848L1011.92 226.112C1012.85 221.81 1015.16 218.923 1019 217.168L1016.5 211.712ZM1006.1 224.671C1005.61 226.416 1005.04 227.346 1004.59 227.799L1008.83 232.041C1010.3 230.574 1011.25 228.544 1011.88 226.289L1006.1 224.671ZM1004.59 227.799C1004.53 227.856 1004.06 228.24 1002.39 228.24V234.24C1004.72 234.24 1007.13 233.744 1008.83 232.041L1004.59 227.799ZM1002.39 228.24C1000.86 228.24 1000.02 227.84 999.515 227.367L995.421 231.753C997.314 233.52 999.759 234.24 1002.39 234.24V228.24ZM999.661 227.513C999.32 227.147 999.019 226.557 999.23 225.234L993.306 224.286C992.877 226.963 993.376 229.573 995.275 231.607L999.661 227.513ZM999.249 225.1C1000.19 216.811 1003.85 211.068 1010.13 207.438L1007.13 202.242C999.01 206.932 994.422 214.469 993.287 224.42L999.249 225.1ZM1010.12 207.445C1016.74 203.659 1026.62 201.6 1040.07 201.6V195.6C1026.16 195.6 1015.07 197.701 1007.14 202.235L1010.12 207.445ZM1040.07 201.6H1053.99V195.6H1040.07V201.6ZM1053.99 201.6C1068.56 201.6 1078.54 204.999 1084.61 211.149L1088.88 206.931C1081.2 199.161 1069.33 195.6 1053.99 195.6V201.6ZM1084.64 211.174C1090.79 217.253 1094.19 227.225 1094.19 241.8H1100.19C1100.19 226.455 1096.63 214.587 1088.86 206.906L1084.64 211.174ZM1094.19 241.8V305.64H1100.19V241.8H1094.19ZM1094.19 305.64C1094.19 307.312 1093.78 308.012 1093.49 308.309C1093.21 308.596 1092.55 309 1090.95 309V315C1093.51 315 1095.97 314.344 1097.77 312.511C1099.56 310.688 1100.19 308.208 1100.19 305.64H1094.19ZM1090.95 309C1089.29 309 1088.6 308.588 1088.3 308.289C1088 307.99 1087.59 307.298 1087.59 305.64H1081.59C1081.59 308.222 1082.24 310.71 1084.06 312.531C1085.88 314.352 1088.37 315 1090.95 315V309ZM1087.59 305.64V293.76H1081.59V305.64H1087.59ZM1082.05 292.158C1075.12 303.14 1062.58 309 1043.43 309V315C1063.79 315 1078.7 308.7 1087.12 295.362L1082.05 292.158ZM1043.43 309H1029.99V315H1043.43V309ZM1029.99 302.4H1043.43V296.4H1029.99V302.4ZM1043.43 302.4C1051.4 302.4 1058.49 301.539 1064.66 299.763L1063 293.997C1057.49 295.581 1050.98 296.4 1043.43 296.4V302.4ZM1064.68 299.756C1071.02 297.871 1076.27 294.822 1080.3 290.532L1075.92 286.428C1072.74 289.818 1068.47 292.369 1062.97 294.004L1064.68 299.756ZM1080.3 290.532C1084.43 286.123 1086.79 280.351 1087.57 273.455L1081.61 272.785C1080.94 278.689 1078.99 283.157 1075.92 286.428L1080.3 290.532ZM1087.59 273.12V252.24H1081.59V273.12H1087.59ZM1084.59 249.24H1029.99V255.24H1084.59V249.24ZM1029.99 249.24C1020.91 249.24 1013.7 250.962 1009.39 255.279L1013.63 259.521C1016.19 256.958 1021.31 255.24 1029.99 255.24V249.24ZM1009.39 255.279C1005.14 259.528 1003.47 266.754 1003.47 275.88H1009.47C1009.47 267.086 1011.16 261.992 1013.63 259.521L1009.39 255.279ZM1003.47 275.88C1003.47 284.947 1005.15 292.139 1009.36 296.456L1013.65 292.264C1011.15 289.701 1009.47 284.573 1009.47 275.88H1003.47ZM1009.41 296.506C1013.73 300.723 1020.92 302.4 1029.99 302.4V296.4C1021.3 296.4 1016.17 294.717 1013.6 292.214L1009.41 296.506ZM1143.78 211.2H1146.78V208.2H1143.78V211.2ZM1143.78 198.6V201.6H1146.78V198.6H1143.78ZM1156.38 198.6H1153.38V201.6H1156.38V198.6ZM1156.38 211.2V208.2H1153.38V211.2H1156.38ZM1162.86 292.92L1160.74 295.041L1160.75 295.051L1160.76 295.061L1162.86 292.92ZM1191.18 300.96L1188.98 302.995L1189.02 303.039L1189.06 303.081L1191.18 300.96ZM1186.26 309C1171.92 309 1162.1 305.679 1156.1 299.679L1151.86 303.921C1159.46 311.521 1171.16 315 1186.26 315V309ZM1156.1 299.679C1150.1 293.676 1146.78 283.893 1146.78 269.64H1140.78C1140.78 284.667 1144.26 296.324 1151.86 303.921L1156.1 299.679ZM1146.78 269.64V211.2H1140.78V269.64H1146.78ZM1143.78 208.2H1129.5V214.2H1143.78V208.2ZM1129.5 208.2C1127.84 208.2 1127.15 207.788 1126.85 207.489C1126.55 207.19 1126.14 206.498 1126.14 204.84H1120.14C1120.14 207.422 1120.79 209.91 1122.61 211.731C1124.43 213.552 1126.92 214.2 1129.5 214.2V208.2ZM1126.14 204.84C1126.14 203.237 1126.54 202.583 1126.83 202.301C1127.13 202.01 1127.83 201.6 1129.5 201.6V195.6C1126.93 195.6 1124.45 196.23 1122.63 198.019C1120.8 199.817 1120.14 202.283 1120.14 204.84H1126.14ZM1129.5 201.6H1143.78V195.6H1129.5V201.6ZM1146.78 198.6V172.8H1140.78V198.6H1146.78ZM1146.78 172.8C1146.78 171.128 1147.19 170.428 1147.48 170.131C1147.76 169.844 1148.42 169.44 1150.02 169.44V163.44C1147.46 163.44 1145 164.096 1143.2 165.929C1141.41 167.752 1140.78 170.232 1140.78 172.8H1146.78ZM1150.02 169.44C1151.68 169.44 1152.37 169.852 1152.67 170.151C1152.97 170.45 1153.38 171.142 1153.38 172.8H1159.38C1159.38 170.218 1158.73 167.73 1156.91 165.909C1155.09 164.088 1152.6 163.44 1150.02 163.44V169.44ZM1153.38 172.8V198.6H1159.38V172.8H1153.38ZM1156.38 201.6H1186.5V195.6H1156.38V201.6ZM1186.5 201.6C1188.12 201.6 1188.78 202.002 1189.06 202.281C1189.34 202.56 1189.74 203.222 1189.74 204.84H1195.74C1195.74 202.298 1195.1 199.84 1193.3 198.039C1191.5 196.238 1189.04 195.6 1186.5 195.6V201.6ZM1189.74 204.84C1189.74 206.512 1189.33 207.212 1189.04 207.509C1188.76 207.796 1188.1 208.2 1186.5 208.2V214.2C1189.06 214.2 1191.52 213.544 1193.32 211.711C1195.11 209.888 1195.74 207.408 1195.74 204.84H1189.74ZM1186.5 208.2H1156.38V214.2H1186.5V208.2ZM1153.38 211.2V269.64H1159.38V211.2H1153.38ZM1153.38 269.64C1153.38 281.035 1155.54 289.843 1160.74 295.041L1164.98 290.799C1161.54 287.357 1159.38 280.645 1159.38 269.64H1153.38ZM1160.76 295.061C1166.03 300.236 1174.86 302.4 1186.26 302.4V296.4C1175.26 296.4 1168.49 294.244 1164.96 290.779L1160.76 295.061ZM1186.26 302.4C1188.26 302.4 1188.86 302.868 1188.98 302.995L1193.38 298.925C1191.58 296.972 1188.9 296.4 1186.26 296.4V302.4ZM1189.06 303.081C1189.34 303.36 1189.74 304.022 1189.74 305.64H1195.74C1195.74 303.098 1195.1 300.64 1193.3 298.839L1189.06 303.081ZM1189.74 305.64C1189.74 307.283 1189.33 307.968 1189.02 308.269C1188.7 308.58 1187.97 309 1186.26 309V315C1188.87 315 1191.38 314.36 1193.22 312.551C1195.07 310.732 1195.74 308.237 1195.74 305.64H1189.74ZM1238.56 216.36H1235.56V226.587L1241.08 217.981L1238.56 216.36ZM1319.32 209.04L1317.18 211.149L1317.19 211.161L1317.21 211.174L1319.32 209.04ZM1310.32 217.92L1308.19 220.041L1308.2 220.051L1308.21 220.06L1310.32 217.92ZM1250.56 217.08L1252 219.708L1252 219.708L1250.56 217.08ZM1238.56 235.44L1235.57 235.124L1235.56 235.282V235.44H1238.56ZM1232.32 309C1230.66 309 1229.97 308.588 1229.67 308.289C1229.37 307.99 1228.96 307.298 1228.96 305.64H1222.96C1222.96 308.222 1223.6 310.71 1225.42 312.531C1227.25 314.352 1229.73 315 1232.32 315V309ZM1228.96 305.64V151.8H1222.96V305.64H1228.96ZM1228.96 151.8C1228.96 150.197 1229.36 149.543 1229.65 149.261C1229.94 148.97 1230.64 148.56 1232.32 148.56V142.56C1229.75 142.56 1227.27 143.19 1225.44 144.979C1223.61 146.777 1222.96 149.243 1222.96 151.8H1228.96ZM1232.32 148.56C1233.93 148.56 1234.6 148.962 1234.87 149.241C1235.15 149.52 1235.56 150.182 1235.56 151.8H1241.56C1241.56 149.258 1240.92 146.8 1239.12 144.999C1237.32 143.198 1234.86 142.56 1232.32 142.56V148.56ZM1235.56 151.8V216.36H1241.56V151.8H1235.56ZM1241.08 217.981C1247.92 207.329 1260.47 201.6 1279.84 201.6V195.6C1259.36 195.6 1244.39 201.711 1236.03 214.739L1241.08 217.981ZM1279.84 201.6H1286.56V195.6H1279.84V201.6ZM1286.56 201.6C1301.13 201.6 1311.1 204.999 1317.18 211.149L1321.45 206.931C1313.77 199.161 1301.9 195.6 1286.56 195.6V201.6ZM1317.21 211.174C1323.36 217.253 1326.76 227.225 1326.76 241.8H1332.76C1332.76 226.455 1329.19 214.587 1321.42 206.906L1317.21 211.174ZM1326.76 241.8V305.64H1332.76V241.8H1326.76ZM1326.76 305.64C1326.76 307.312 1326.35 308.012 1326.05 308.309C1325.77 308.596 1325.12 309 1323.52 309V315C1326.07 315 1328.54 314.344 1330.34 312.511C1332.13 310.688 1332.76 308.208 1332.76 305.64H1326.76ZM1323.52 309C1321.86 309 1321.17 308.588 1320.87 308.289C1320.57 307.99 1320.16 307.298 1320.16 305.64H1314.16C1314.16 308.222 1314.8 310.71 1316.62 312.531C1318.45 314.352 1320.93 315 1323.52 315V309ZM1320.16 305.64V241.8H1314.16V305.64H1320.16ZM1320.16 241.8C1320.16 230.139 1317.87 221.132 1312.42 215.78L1308.21 220.06C1311.89 223.668 1314.16 230.581 1314.16 241.8H1320.16ZM1312.44 215.799C1307.09 210.449 1298.13 208.2 1286.56 208.2V214.2C1297.7 214.2 1304.58 216.431 1308.19 220.041L1312.44 215.799ZM1286.56 208.2H1279.84V214.2H1286.56V208.2ZM1279.84 208.2C1267.17 208.2 1256.85 210.193 1249.11 214.452L1252 219.708C1258.51 216.127 1267.7 214.2 1279.84 214.2V208.2ZM1249.11 214.452C1241.1 218.861 1236.55 225.863 1235.57 235.124L1241.54 235.756C1242.32 228.377 1245.77 223.139 1252 219.708L1249.11 214.452ZM1235.56 235.44V305.64H1241.56V235.44H1235.56ZM1235.56 305.64C1235.56 307.312 1235.15 308.012 1234.85 308.309C1234.57 308.596 1233.92 309 1232.32 309V315C1234.87 315 1237.34 314.344 1239.14 312.511C1240.93 310.688 1241.56 308.208 1241.56 305.64H1235.56Z" fill="#C2C2C2" mask="url(#path-12-outside-1_5_37)"/>
</g>
<defs>
<filter id="filter0_d_5_37" x="345.2" y="145.56" width="988.556" height="174.44" filterUnits="userSpaceOnUse" color-interpolation-filters="sRGB">
<feFlood flood-opacity="0" result="BackgroundImageFix"/>
<feColorMatrix in="SourceAlpha" type="matrix" values="0 0 0 0 0 0 0 0 0 0 0 0 0 0 0 0 0 0 127 0" result="hardAlpha"/>
<feOffset dy="4"/>
<feGaussianBlur stdDeviation="2"/>
<feComposite in2="hardAlpha" operator="out"/>
<feColorMatrix type="matrix" values="0 0 0 0 0 0 0 0 0 0 0 0 0 0 0 0 0 0 0.25 0"/>
<feBlend mode="normal" in2="BackgroundImageFix" result="effect1_dropShadow_5_37"/>
<feBlend mode="normal" in="SourceGraphic" in2="effect1_dropShadow_5_37" result="shape"/>
</filter>
<linearGradient id="paint0_linear_5_37" x1="170.877" y1="117" x2="170.877" y2="236" gradientUnits="userSpaceOnUse">
<stop stop-color="white" stop-opacity="0"/>
<stop offset="0.410045" stop-color="#FDD02F" stop-opacity="0.455521"/>
<stop offset="0.676543" stop-color="#E3B922" stop-opacity="0.55"/>
<stop offset="1" stop-color="#A77B0B"/>
</linearGradient>
</defs>
</svg>
